<?xml version="1.0" encoding="UTF-8" standalone="no"?>
<!-- Created with Inkscape (http://www.inkscape.org/) -->

<svg
   width="26.522196mm"
   height="26.522196mm"
   viewBox="0 0 26.522196 26.522196"
   version="1.1"
   id="svg5934"
   inkscape:version="1.1.2 (b8e25be833, 2022-02-05)"
   sodipodi:docname="letterboxd.svg"
   xmlns:inkscape="http://www.inkscape.org/namespaces/inkscape"
   xmlns:sodipodi="http://sodipodi.sourceforge.net/DTD/sodipodi-0.dtd"
   xmlns="http://www.w3.org/2000/svg"
   xmlns:svg="http://www.w3.org/2000/svg">
  <sodipodi:namedview
     id="namedview5936"
     pagecolor="#ffffff"
     bordercolor="#666666"
     borderopacity="1.0"
     inkscape:pageshadow="2"
     inkscape:pageopacity="0.0"
     inkscape:pagecheckerboard="0"
     inkscape:document-units="mm"
     showgrid="false"
     inkscape:zoom="5.7584736"
     inkscape:cx="96.81385"
     inkscape:cy="37.770426"
     inkscape:window-width="1920"
     inkscape:window-height="1001"
     inkscape:window-x="-9"
     inkscape:window-y="-9"
     inkscape:window-maximized="1"
     inkscape:current-layer="layer1" />
  <defs
     id="defs5931" />
  <g
     inkscape:label="Layer 1"
     inkscape:groupmode="layer"
     id="layer1"
     transform="translate(-35.626277,-51.064395)">
    <circle
       cx="48.887375"
       cy="64.325493"
       r="13.261098"
       class="Z"
       id="circle6047"
       style="fill:#445566;fill-opacity:1;fill-rule:evenodd;stroke-width:0.94722" />
    <circle
       cx="42.537376"
       cy="64.325493"
       r="3.7041667"
       class="u"
       id="circle3700"
       style="fill:#ff8000;fill-rule:evenodd;stroke-width:0.264583" />
    <circle
       cx="55.237377"
       cy="64.325493"
       r="3.7041667"
       class="K"
       id="circle3702"
       style="fill:#40bcf4;fill-rule:evenodd;stroke-width:0.264583" />
    <circle
       cx="48.887375"
       cy="64.325493"
       r="3.7041667"
       class="Z"
       id="circle3704"
       style="fill:#00e054;fill-rule:evenodd;stroke-width:0.264583" />
    <path
       d="m 52.062376,62.416526 c 0.335757,0.557477 0.529167,1.210733 0.529167,1.908969 0,0.698235 -0.193146,1.351491 -0.529167,1.908968 -0.33602,-0.557477 -0.529166,-1.210733 -0.529166,-1.908968 0,-0.691092 0.189177,-1.337998 0.518848,-1.891771 z m -6.349999,0 c 0.335756,0.557477 0.529166,1.210733 0.529166,1.908969 0,0.698235 -0.193146,1.351491 -0.529166,1.908968 -0.336021,-0.557477 -0.529167,-1.210733 -0.529167,-1.908968 0,-0.691092 0.189177,-1.337998 0.518848,-1.891771 z"
       class="B"
       id="path3706"
       style="fill:#ffffff;fill-rule:evenodd;stroke-width:0.264583" />
  </g>
</svg>
