<?xml version="1.0" encoding="iso-8859-1"?>
<!-- Uploaded to: SVG Repo, www.svgrepo.com, Generator: SVG Repo Mixer Tools -->
<!DOCTYPE svg PUBLIC "-//W3C//DTD SVG 1.1//EN" "http://www.w3.org/Graphics/SVG/1.1/DTD/svg11.dtd">
<svg fill="#000000" version="1.1" id="Capa_1" xmlns="http://www.w3.org/2000/svg" xmlns:xlink="http://www.w3.org/1999/xlink" 
	 width="800px" height="800px" viewBox="0 0 550.354 550.354"
	 xml:space="preserve">
<g>
	<g>
		<path d="M541.169,208.807H261.295c-5.07,0-5.906-2.484-1.87-5.551l68.373-51.919c4.039-3.066,7.311-9.66,7.311-14.73V25.578
			c0-5.07-3.269-6.689-7.301-3.614L3.025,269.61c-4.033,3.075-4.033,8.057,0,11.132L327.811,528.39
			c4.033,3.076,7.301,1.457,7.301-3.613V413.748c0-5.07-3.274-11.665-7.311-14.73l-68.372-51.919
			c-4.04-3.066-3.201-5.551,1.87-5.551h279.876c5.07,0,9.18-4.11,9.18-9.181V217.988
			C550.349,212.917,546.239,208.807,541.169,208.807z"/>
	</g>
</g>
</svg>