<svg width="800" height="1020" version="1.1" xmlns="http://www.w3.org/2000/svg">
  <path d="m399.08 134.57-1.19-3.86c-.34-.96-1.47-.93-1.78 0l-1.2 3.86h-3.84c-1.12 0-1.46 1.09-.54 1.79l3.1 2.39-1.18 3.86c-.35 1.13.52 1.8 1.44 1.1l3.11-2.38 3.11 2.38c.92.7 1.79.03 1.44-1.1l-1.18-3.86 3.1-2.39c.92-.7.58-1.79-.54-1.79zm16 0-1.19-3.86c-.34-.96-1.47-.93-1.78 0l-1.2 3.86h-3.84c-1.12 0-1.46 1.09-.54 1.79l3.1 2.39-1.18 3.86c-.35 1.13.52 1.8 1.44 1.1l3.11-2.38 3.11 2.38c.92.7 1.79.03 1.44-1.1l-1.18-3.86 3.1-2.39c.92-.7.58-1.79-.54-1.79zm16 0-1.19-3.86c-.34-.96-1.47-.93-1.78 0l-1.2 3.86h-3.84c-1.12 0-1.46 1.09-.54 1.79l3.1 2.39-1.18 3.86c-.35 1.13.52 1.8 1.44 1.1l3.11-2.38 3.11 2.38c.92.7 1.79.03 1.44-1.1l-1.18-3.86 3.1-2.39c.92-.7.58-1.79-.54-1.79zm16 0-1.19-3.86c-.34-.96-1.47-.93-1.78 0l-1.2 3.86h-3.84c-1.12 0-1.46 1.09-.54 1.79l3.1 2.39-1.18 3.86c-.35 1.13.52 1.8 1.44 1.1l3.11-2.38 3.11 2.38c.92.7 1.79.03 1.44-1.1l-1.18-3.86 3.1-2.39c.92-.7.58-1.79-.54-1.79zm16 0-1.19-3.86c-.34-.96-1.47-.93-1.78 0l-1.2 3.86h-3.84c-1.12 0-1.46 1.09-.54 1.79l3.1 2.39-1.18 3.86c-.35 1.13.52 1.8 1.44 1.1l3.11-2.38 3.11 2.38c.92.7 1.79.03 1.44-1.1l-1.18-3.86 3.1-2.39c.92-.7.58-1.79-.54-1.79zm12.943 4.3-.209-1.273h-1.368v-6.574h-1.064l-2.261 1.026.19 1.254 1.691-.741v5.035h-1.767v1.273zm6.27-7.524-1.292-.342-7.524 12.806 1.292.342zM484.592 144l-.209-1.292h-3.173l1.824-1.786c.95-.931 1.425-1.558 1.425-2.527 0-1.216-.912-2.242-2.508-2.242-.969 0-1.824.342-2.413.779l.228 1.349c.589-.437 1.292-.779 1.957-.779.722 0 1.159.38 1.159 1.045 0 .513-.266.912-.893 1.558l-2.679 2.755V144Z" id="path2304" style="fill-rule:evenodd;fill:#00c030"/>
</svg>
