<?xml version="1.0" encoding="UTF-8" standalone="no"?>
<svg
   width="74.657433"
   height="74.657433"
   viewBox="0 0 70.063129 74.657433"
   fill="none"
   version="1.1"
   id="svg6588"
   sodipodi:docname="mastodon.svg"
   inkscape:version="1.1.2 (b8e25be833, 2022-02-05)"
   xmlns:inkscape="http://www.inkscape.org/namespaces/inkscape"
   xmlns:sodipodi="http://sodipodi.sourceforge.net/DTD/sodipodi-0.dtd"
   xmlns="http://www.w3.org/2000/svg"
   xmlns:svg="http://www.w3.org/2000/svg">
  <sodipodi:namedview
     id="namedview6590"
     pagecolor="#ffffff"
     bordercolor="#666666"
     borderopacity="1.0"
     inkscape:pageshadow="2"
     inkscape:pageopacity="0.0"
     inkscape:pagecheckerboard="0"
     showgrid="false"
     inkscape:zoom="4.536362"
     inkscape:cx="73.627282"
     inkscape:cy="44.639295"
     inkscape:window-width="1920"
     inkscape:window-height="1001"
     inkscape:window-x="-9"
     inkscape:window-y="-9"
     inkscape:window-maximized="1"
     inkscape:current-layer="svg6588" />
  <circle
     style="fill:#6364ff;fill-opacity:1;stroke-width:11.3386;stroke-linecap:round;stroke-linejoin:round"
     id="path6808"
     cx="35.328716"
     cy="37.328716"
     r="37.328716" />
  <path
     id="path6577"
     style="fill:#ffffff;fill-opacity:1;fill-rule:nonzero;stroke-width:0.867734"
     d="m 34.823594,9.1275871 c -9.273998,0 -11.26477,0.5689955 -12.321151,0.7253716 -6.086912,0.8998003 -11.64532,5.1909163 -12.9939823,11.3229163 -0.648689,3.019889 -0.717075,6.368915 -0.596567,9.44 0.171788,4.404185 0.205058,8.79927 0.605041,13.185494 0.27652,2.913591 0.7593393,5.804752 1.4439643,8.650226 1.281998,5.25526 6.470692,9.628505 11.555103,11.41274 5.443557,1.860683 11.298053,2.16894 16.907261,0.891462 0.617046,-0.143523 1.226995,-0.310191 1.828682,-0.499964 1.363991,-0.433173 2.960991,-0.916595 4.135297,-1.767669 0.01614,-0.01198 0.02969,-0.02805 0.03898,-0.04575 0.0094,-0.01779 0.01456,-0.03758 0.01525,-0.05762 v -4.250552 c -3.47e-4,-0.01874 -0.0052,-0.0357 -0.01356,-0.05254 -0.0083,-0.01675 -0.02085,-0.03253 -0.0356,-0.04406 -0.01475,-0.01154 -0.03253,-0.01965 -0.05084,-0.02372 -0.01822,-0.0041 -0.03601,-0.0042 -0.05423,0 -3.593808,0.858363 -7.277194,1.289726 -10.972094,1.282958 -6.35867,0 -8.069044,-3.018137 -8.558707,-4.274269 -0.393691,-1.085623 -0.642444,-2.217112 -0.74232,-3.367555 -0.0011,-0.01926 0.0023,-0.03993 0.01017,-0.05762 0.0078,-0.01761 0.01889,-0.03352 0.0339,-0.04575 0.01501,-0.01223 0.03363,-0.01965 0.05254,-0.02372 0.01891,-0.0042 0.03718,-0.0048 0.05592,0 3.533848,0.852462 7.157073,1.283913 10.792445,1.282958 0.874243,0 1.745823,-6.45e-4 2.620151,-0.02372 3.656199,-0.102566 7.510398,-0.289024 11.107678,-0.991454 0.08972,-0.01796 0.179032,-0.03454 0.255914,-0.05762 5.674114,-1.089528 11.074138,-4.508905 11.622894,-13.168546 0.02048,-0.340934 0.07118,-3.571367 0.07118,-3.925143 0.0025,-1.202333 0.387658,-8.528028 -0.05592,-13.029573 C 60.76567,15.554587 55.483783,10.778401 49.222559,9.8529587 48.16618,9.6965826 44.164474,9.1275871 34.893079,9.1275871 Z M 27.08686,18.355739 c 3.053731,0 5.362794,1.174426 6.9012,3.520085 l 1.482944,2.491347 1.488029,-2.491347 c 1.538406,-2.345659 3.845809,-3.520085 6.89442,-3.520085 2.63583,0 4.762151,0.928078 6.387678,2.735396 1.56921,1.809833 2.352414,4.253737 2.350678,7.331677 V 43.479359 H 46.624441 V 28.866848 c 0,-3.076292 -1.281923,-4.64543 -3.889552,-4.64543 -2.86656,0 -4.301386,1.855722 -4.301386,5.521638 v 7.999425 h -5.930082 v -7.999425 c 0,-3.665917 -1.43991,-5.521638 -4.306471,-5.521638 -2.592183,0 -3.886162,1.569138 -3.886162,4.64543 V 43.479359 H 18.34681 V 28.422812 c 0,-3.076291 0.784903,-5.520108 2.355762,-7.331677 1.620494,-1.807318 3.745942,-2.735396 6.384288,-2.735396 z" />
  <defs
     id="defs6586">
    <linearGradient
       id="paint0_linear_89_8"
       x1="30.5"
       y1="0"
       x2="30.5"
       y2="65"
       gradientUnits="userSpaceOnUse"
       gradientTransform="translate(2)">
      <stop
         stop-color="#6364FF"
         id="stop6581" />
      <stop
         offset="1"
         stop-color="#563ACC"
         id="stop6583" />
    </linearGradient>
  </defs>
</svg>
